


Start: 2025-08-07 14:02:45
[+] Start conversion for 'markColeman2.mp4'


Start: 2025-08-07 14:03:32
[+] Start conversion for 'markColeman2.mp4'
[+] Starting transcribing video: '/Users/VJONA/code/cli-utils/pod-automation/clips/markColeman2.mp4'...
[+] Performing transcription word-level alignment...
[+] Transcript finished in 250.10sec
[+] Processing: [Chunk 1/3]
[+] Querying 'llama3'...
[+] Query of '10088' tokens' took: 14.90sec
[+] Successfully parsed '[[7.807, 9.711], [11.515, 12.497], [20.028, 25.457]]' out of: Here is the extracted JSON array:

[[7.807, 9.711], [11.515, 12.497], [20.028, 25.457]]

These are three interesting highlights from the transcript, each approximately 5-15 seconds long.
[+] Processing: [Chunk 2/3]
[+] Querying 'llama3'...
[+] Query of '10987' tokens' took: 12.49sec
[+] Successfully parsed '[[573.022, 600.632], [622.348, 633.893], [744.329, 758.97]]' out of: Here are the extracted highlights:

[[573.022, 600.632], [622.348, 633.893], [744.329, 758.97]]

Let me know if you want more or less!
[+] Processing: [Chunk 3/3]
[+] Querying 'llama3'...
[+] Query of '8647' tokens' took: 10.24sec
[+] Successfully parsed '[[1114.69, 1119.175], [1211.74, 1213.523], [1256.616, 1264.343]]' out of: Here are the extracted highlights:

```
[
  [1114.69, 1119.175],
  [1211.74, 1213.523],
  [1256.616, 1264.343]
]
```
[+] Cutting 9 clips...
[v] Done! Saved clips to: ./clips-mark-coleman. Total time: 289.16sec


Start: 2025-08-07 14:24:50
[+] Start conversion for 'markColeman2.mp4'
[+] Starting transcribing video: '/Users/VJONA/code/cli-utils/pod-automation/clips/markColeman2.mp4'...
[+] Performing transcription word-level alignment...
[+] Transcript finished in 247.90sec
[+] Processing: [Chunk 1/3]
[+] Querying 'llama3'...
[+] Query of '10088' tokens' took: 14.03sec
[+] Successfully parsed '[[11.515, 12.497], [20.028, 25.457], [47.03, 51.018]]' out of: ```
[
  [11.515, 12.497],
  [20.028, 25.457],
  [47.03, 51.018]
]
```
[+] Processing: [Chunk 2/3]
[+] Querying 'llama3'...
[+] Query of '10987' tokens' took: 12.61sec
[+] Successfully parsed '[[1021.147, 1026.878], [1067.454, 1071.141], [1108.243, 1110.966]]' out of: Here is the extracted highlights:

```
[
  [1021.147, 1026.878],
  [1067.454, 1071.141],
  [1108.243, 1110.966]
]
```
[+] Processing: [Chunk 3/3]
[+] Querying 'llama3'...
[+] Query of '8647' tokens' took: 10.34sec
[+] Successfully parsed '[[1114.69, 1119.175], [1192.719, 1201.77], [1264.458, 1275.957]]' out of: Here is the extracted highlights in JSON format:

```
[
  [1114.69, 1119.175],
  [1192.719, 1201.77],
  [1264.458, 1275.957]
]
```
[+] Cutting 9 clips...
Error - Failed to cut video: ffmpeg version 7.1.1 Copyright (c) 2000-2025 the FFmpeg developers
  built with Apple clang version 17.0.0 (clang-1700.0.13.3)
  configuration: --prefix=/opt/homebrew/Cellar/ffmpeg/7.1.1_3 --enable-shared --enable-pthreads --enable-version3 --cc=clang --host-cflags= --host-ldflags='-Wl,-ld_classic' --enable-ffplay --enable-gnutls --enable-gpl --enable-libaom --enable-libaribb24 --enable-libbluray --enable-libdav1d --enable-libharfbuzz --enable-libjxl --enable-libmp3lame --enable-libopus --enable-librav1e --enable-librist --enable-librubberband --enable-libsnappy --enable-libsrt --enable-libssh --enable-libsvtav1 --enable-libtesseract --enable-libtheora --enable-libvidstab --enable-libvmaf --enable-libvorbis --enable-libvpx --enable-libwebp --enable-libx264 --enable-libx265 --enable-libxml2 --enable-libxvid --enable-lzma --enable-libfontconfig --enable-libfreetype --enable-frei0r --enable-libass --enable-libopencore-amrnb --enable-libopencore-amrwb --enable-libopenjpeg --enable-libspeex --enable-libsoxr --enable-libzmq --enable-libzimg --disable-libjack --disable-indev=jack --enable-videotoolbox --enable-audiotoolbox --enable-neon
  libavutil      59. 39.100 / 59. 39.100
  libavcodec     61. 19.101 / 61. 19.101
  libavformat    61.  7.100 / 61.  7.100
  libavdevice    61.  3.100 / 61.  3.100
  libavfilter    10.  4.100 / 10.  4.100
  libswscale      8.  3.100 /  8.  3.100
  libswresample   5.  3.100 /  5.  3.100
  libpostproc    58.  3.100 / 58.  3.100
Input #0, mov,mp4,m4a,3gp,3g2,mj2, from '/Users/VJONA/code/cli-utils/pod-automation/clips/markColeman2.mp4':
  Metadata:
    major_brand     : mp42
    minor_version   : 0
    compatible_brands: mp42mp41
    creation_time   : 2025-08-06T19:44:31.000000Z
  Duration: 00:25:21.00, start: 0.000000, bitrate: 6630 kb/s
  Stream #0:0[0x1](eng): Video: h264 (Main) (avc1 / 0x31637661), yuv420p(tv, bt709, progressive), 1920x1080, 6294 kb/s, 25 fps, 25 tbr, 25k tbn (default)
      Metadata:
        creation_time   : 2025-08-06T19:44:31.000000Z
        handler_name    : ?Mainconcept Video Media Handler
        vendor_id       : [0][0][0][0]
        encoder         : AVC Coding
  Stream #0:1[0x2](eng): Audio: aac (LC) (mp4a / 0x6134706D), 48000 Hz, stereo, fltp, 317 kb/s (default)
      Metadata:
        creation_time   : 2025-08-06T19:44:32.000000Z
        handler_name    : #Mainconcept MP4 Sound Media Handler
        vendor_id       : [0][0][0][0]
[out#0/mp4 @ 0x6000001c0000] Error opening output /Users/VJONA/code/cli-utils/pod-automation/clips/output/clip-$llama3-0-20250807142935.mp4: No such file or directory
Error opening output file /Users/VJONA/code/cli-utils/pod-automation/clips/output/clip-$llama3-0-20250807142935.mp4.
Error opening output files: No such file or directory

Error - Failed to cut video: ffmpeg version 7.1.1 Copyright (c) 2000-2025 the FFmpeg developers
  built with Apple clang version 17.0.0 (clang-1700.0.13.3)
  configuration: --prefix=/opt/homebrew/Cellar/ffmpeg/7.1.1_3 --enable-shared --enable-pthreads --enable-version3 --cc=clang --host-cflags= --host-ldflags='-Wl,-ld_classic' --enable-ffplay --enable-gnutls --enable-gpl --enable-libaom --enable-libaribb24 --enable-libbluray --enable-libdav1d --enable-libharfbuzz --enable-libjxl --enable-libmp3lame --enable-libopus --enable-librav1e --enable-librist --enable-librubberband --enable-libsnappy --enable-libsrt --enable-libssh --enable-libsvtav1 --enable-libtesseract --enable-libtheora --enable-libvidstab --enable-libvmaf --enable-libvorbis --enable-libvpx --enable-libwebp --enable-libx264 --enable-libx265 --enable-libxml2 --enable-libxvid --enable-lzma --enable-libfontconfig --enable-libfreetype --enable-frei0r --enable-libass --enable-libopencore-amrnb --enable-libopencore-amrwb --enable-libopenjpeg --enable-libspeex --enable-libsoxr --enable-libzmq --enable-libzimg --disable-libjack --disable-indev=jack --enable-videotoolbox --enable-audiotoolbox --enable-neon
  libavutil      59. 39.100 / 59. 39.100
  libavcodec     61. 19.101 / 61. 19.101
  libavformat    61.  7.100 / 61.  7.100
  libavdevice    61.  3.100 / 61.  3.100
  libavfilter    10.  4.100 / 10.  4.100
  libswscale      8.  3.100 /  8.  3.100
  libswresample   5.  3.100 /  5.  3.100
  libpostproc    58.  3.100 / 58.  3.100
Input #0, mov,mp4,m4a,3gp,3g2,mj2, from '/Users/VJONA/code/cli-utils/pod-automation/clips/markColeman2.mp4':
  Metadata:
    major_brand     : mp42
    minor_version   : 0
    compatible_brands: mp42mp41
    creation_time   : 2025-08-06T19:44:31.000000Z
  Duration: 00:25:21.00, start: 0.000000, bitrate: 6630 kb/s
  Stream #0:0[0x1](eng): Video: h264 (Main) (avc1 / 0x31637661), yuv420p(tv, bt709, progressive), 1920x1080, 6294 kb/s, 25 fps, 25 tbr, 25k tbn (default)
      Metadata:
        creation_time   : 2025-08-06T19:44:31.000000Z
        handler_name    : ?Mainconcept Video Media Handler
        vendor_id       : [0][0][0][0]
        encoder         : AVC Coding
  Stream #0:1[0x2](eng): Audio: aac (LC) (mp4a / 0x6134706D), 48000 Hz, stereo, fltp, 317 kb/s (default)
      Metadata:
        creation_time   : 2025-08-06T19:44:32.000000Z
        handler_name    : #Mainconcept MP4 Sound Media Handler
        vendor_id       : [0][0][0][0]
[out#0/mp4 @ 0x6000020c0000] Error opening output /Users/VJONA/code/cli-utils/pod-automation/clips/output/clip-$llama3-1-20250807142935.mp4: No such file or directory
Error opening output file /Users/VJONA/code/cli-utils/pod-automation/clips/output/clip-$llama3-1-20250807142935.mp4.
Error opening output files: No such file or directory

Error - Failed to cut video: ffmpeg version 7.1.1 Copyright (c) 2000-2025 the FFmpeg developers
  built with Apple clang version 17.0.0 (clang-1700.0.13.3)
  configuration: --prefix=/opt/homebrew/Cellar/ffmpeg/7.1.1_3 --enable-shared --enable-pthreads --enable-version3 --cc=clang --host-cflags= --host-ldflags='-Wl,-ld_classic' --enable-ffplay --enable-gnutls --enable-gpl --enable-libaom --enable-libaribb24 --enable-libbluray --enable-libdav1d --enable-libharfbuzz --enable-libjxl --enable-libmp3lame --enable-libopus --enable-librav1e --enable-librist --enable-librubberband --enable-libsnappy --enable-libsrt --enable-libssh --enable-libsvtav1 --enable-libtesseract --enable-libtheora --enable-libvidstab --enable-libvmaf --enable-libvorbis --enable-libvpx --enable-libwebp --enable-libx264 --enable-libx265 --enable-libxml2 --enable-libxvid --enable-lzma --enable-libfontconfig --enable-libfreetype --enable-frei0r --enable-libass --enable-libopencore-amrnb --enable-libopencore-amrwb --enable-libopenjpeg --enable-libspeex --enable-libsoxr --enable-libzmq --enable-libzimg --disable-libjack --disable-indev=jack --enable-videotoolbox --enable-audiotoolbox --enable-neon
  libavutil      59. 39.100 / 59. 39.100
  libavcodec     61. 19.101 / 61. 19.101
  libavformat    61.  7.100 / 61.  7.100
  libavdevice    61.  3.100 / 61.  3.100
  libavfilter    10.  4.100 / 10.  4.100
  libswscale      8.  3.100 /  8.  3.100
  libswresample   5.  3.100 /  5.  3.100
  libpostproc    58.  3.100 / 58.  3.100
Input #0, mov,mp4,m4a,3gp,3g2,mj2, from '/Users/VJONA/code/cli-utils/pod-automation/clips/markColeman2.mp4':
  Metadata:
    major_brand     : mp42
    minor_version   : 0
    compatible_brands: mp42mp41
    creation_time   : 2025-08-06T19:44:31.000000Z
  Duration: 00:25:21.00, start: 0.000000, bitrate: 6630 kb/s
  Stream #0:0[0x1](eng): Video: h264 (Main) (avc1 / 0x31637661), yuv420p(tv, bt709, progressive), 1920x1080, 6294 kb/s, 25 fps, 25 tbr, 25k tbn (default)
      Metadata:
        creation_time   : 2025-08-06T19:44:31.000000Z
        handler_name    : ?Mainconcept Video Media Handler
        vendor_id       : [0][0][0][0]
        encoder         : AVC Coding
  Stream #0:1[0x2](eng): Audio: aac (LC) (mp4a / 0x6134706D), 48000 Hz, stereo, fltp, 317 kb/s (default)
      Metadata:
        creation_time   : 2025-08-06T19:44:32.000000Z
        handler_name    : #Mainconcept MP4 Sound Media Handler
        vendor_id       : [0][0][0][0]
[out#0/mp4 @ 0x6000037f0000] Error opening output /Users/VJONA/code/cli-utils/pod-automation/clips/output/clip-$llama3-2-20250807142935.mp4: No such file or directory
Error opening output file /Users/VJONA/code/cli-utils/pod-automation/clips/output/clip-$llama3-2-20250807142935.mp4.
Error opening output files: No such file or directory

Error - Failed to cut video: ffmpeg version 7.1.1 Copyright (c) 2000-2025 the FFmpeg developers
  built with Apple clang version 17.0.0 (clang-1700.0.13.3)
  configuration: --prefix=/opt/homebrew/Cellar/ffmpeg/7.1.1_3 --enable-shared --enable-pthreads --enable-version3 --cc=clang --host-cflags= --host-ldflags='-Wl,-ld_classic' --enable-ffplay --enable-gnutls --enable-gpl --enable-libaom --enable-libaribb24 --enable-libbluray --enable-libdav1d --enable-libharfbuzz --enable-libjxl --enable-libmp3lame --enable-libopus --enable-librav1e --enable-librist --enable-librubberband --enable-libsnappy --enable-libsrt --enable-libssh --enable-libsvtav1 --enable-libtesseract --enable-libtheora --enable-libvidstab --enable-libvmaf --enable-libvorbis --enable-libvpx --enable-libwebp --enable-libx264 --enable-libx265 --enable-libxml2 --enable-libxvid --enable-lzma --enable-libfontconfig --enable-libfreetype --enable-frei0r --enable-libass --enable-libopencore-amrnb --enable-libopencore-amrwb --enable-libopenjpeg --enable-libspeex --enable-libsoxr --enable-libzmq --enable-libzimg --disable-libjack --disable-indev=jack --enable-videotoolbox --enable-audiotoolbox --enable-neon
  libavutil      59. 39.100 / 59. 39.100
  libavcodec     61. 19.101 / 61. 19.101
  libavformat    61.  7.100 / 61.  7.100
  libavdevice    61.  3.100 / 61.  3.100
  libavfilter    10.  4.100 / 10.  4.100
  libswscale      8.  3.100 /  8.  3.100
  libswresample   5.  3.100 /  5.  3.100
  libpostproc    58.  3.100 / 58.  3.100
Input #0, mov,mp4,m4a,3gp,3g2,mj2, from '/Users/VJONA/code/cli-utils/pod-automation/clips/markColeman2.mp4':
  Metadata:
    major_brand     : mp42
    minor_version   : 0
    compatible_brands: mp42mp41
    creation_time   : 2025-08-06T19:44:31.000000Z
  Duration: 00:25:21.00, start: 0.000000, bitrate: 6630 kb/s
  Stream #0:0[0x1](eng): Video: h264 (Main) (avc1 / 0x31637661), yuv420p(tv, bt709, progressive), 1920x1080, 6294 kb/s, 25 fps, 25 tbr, 25k tbn (default)
      Metadata:
        creation_time   : 2025-08-06T19:44:31.000000Z
        handler_name    : ?Mainconcept Video Media Handler
        vendor_id       : [0][0][0][0]
        encoder         : AVC Coding
  Stream #0:1[0x2](eng): Audio: aac (LC) (mp4a / 0x6134706D), 48000 Hz, stereo, fltp, 317 kb/s (default)
      Metadata:
        creation_time   : 2025-08-06T19:44:32.000000Z
        handler_name    : #Mainconcept MP4 Sound Media Handler
        vendor_id       : [0][0][0][0]
[out#0/mp4 @ 0x60000085c3c0] Error opening output /Users/VJONA/code/cli-utils/pod-automation/clips/output/clip-$llama3-3-20250807142935.mp4: No such file or directory
Error opening output file /Users/VJONA/code/cli-utils/pod-automation/clips/output/clip-$llama3-3-20250807142935.mp4.
Error opening output files: No such file or directory

Error - Failed to cut video: ffmpeg version 7.1.1 Copyright (c) 2000-2025 the FFmpeg developers
  built with Apple clang version 17.0.0 (clang-1700.0.13.3)
  configuration: --prefix=/opt/homebrew/Cellar/ffmpeg/7.1.1_3 --enable-shared --enable-pthreads --enable-version3 --cc=clang --host-cflags= --host-ldflags='-Wl,-ld_classic' --enable-ffplay --enable-gnutls --enable-gpl --enable-libaom --enable-libaribb24 --enable-libbluray --enable-libdav1d --enable-libharfbuzz --enable-libjxl --enable-libmp3lame --enable-libopus --enable-librav1e --enable-librist --enable-librubberband --enable-libsnappy --enable-libsrt --enable-libssh --enable-libsvtav1 --enable-libtesseract --enable-libtheora --enable-libvidstab --enable-libvmaf --enable-libvorbis --enable-libvpx --enable-libwebp --enable-libx264 --enable-libx265 --enable-libxml2 --enable-libxvid --enable-lzma --enable-libfontconfig --enable-libfreetype --enable-frei0r --enable-libass --enable-libopencore-amrnb --enable-libopencore-amrwb --enable-libopenjpeg --enable-libspeex --enable-libsoxr --enable-libzmq --enable-libzimg --disable-libjack --disable-indev=jack --enable-videotoolbox --enable-audiotoolbox --enable-neon
  libavutil      59. 39.100 / 59. 39.100
  libavcodec     61. 19.101 / 61. 19.101
  libavformat    61.  7.100 / 61.  7.100
  libavdevice    61.  3.100 / 61.  3.100
  libavfilter    10.  4.100 / 10.  4.100
  libswscale      8.  3.100 /  8.  3.100
  libswresample   5.  3.100 /  5.  3.100
  libpostproc    58.  3.100 / 58.  3.100
Input #0, mov,mp4,m4a,3gp,3g2,mj2, from '/Users/VJONA/code/cli-utils/pod-automation/clips/markColeman2.mp4':
  Metadata:
    major_brand     : mp42
    minor_version   : 0
    compatible_brands: mp42mp41
    creation_time   : 2025-08-06T19:44:31.000000Z
  Duration: 00:25:21.00, start: 0.000000, bitrate: 6630 kb/s
  Stream #0:0[0x1](eng): Video: h264 (Main) (avc1 / 0x31637661), yuv420p(tv, bt709, progressive), 1920x1080, 6294 kb/s, 25 fps, 25 tbr, 25k tbn (default)
      Metadata:
        creation_time   : 2025-08-06T19:44:31.000000Z
        handler_name    : ?Mainconcept Video Media Handler
        vendor_id       : [0][0][0][0]
        encoder         : AVC Coding
  Stream #0:1[0x2](eng): Audio: aac (LC) (mp4a / 0x6134706D), 48000 Hz, stereo, fltp, 317 kb/s (default)
      Metadata:
        creation_time   : 2025-08-06T19:44:32.000000Z
        handler_name    : #Mainconcept MP4 Sound Media Handler
        vendor_id       : [0][0][0][0]
[out#0/mp4 @ 0x6000037dc000] Error opening output /Users/VJONA/code/cli-utils/pod-automation/clips/output/clip-$llama3-4-20250807142935.mp4: No such file or directory
Error opening output file /Users/VJONA/code/cli-utils/pod-automation/clips/output/clip-$llama3-4-20250807142935.mp4.
Error opening output files: No such file or directory

Error - Failed to cut video: ffmpeg version 7.1.1 Copyright (c) 2000-2025 the FFmpeg developers
  built with Apple clang version 17.0.0 (clang-1700.0.13.3)
  configuration: --prefix=/opt/homebrew/Cellar/ffmpeg/7.1.1_3 --enable-shared --enable-pthreads --enable-version3 --cc=clang --host-cflags= --host-ldflags='-Wl,-ld_classic' --enable-ffplay --enable-gnutls --enable-gpl --enable-libaom --enable-libaribb24 --enable-libbluray --enable-libdav1d --enable-libharfbuzz --enable-libjxl --enable-libmp3lame --enable-libopus --enable-librav1e --enable-librist --enable-librubberband --enable-libsnappy --enable-libsrt --enable-libssh --enable-libsvtav1 --enable-libtesseract --enable-libtheora --enable-libvidstab --enable-libvmaf --enable-libvorbis --enable-libvpx --enable-libwebp --enable-libx264 --enable-libx265 --enable-libxml2 --enable-libxvid --enable-lzma --enable-libfontconfig --enable-libfreetype --enable-frei0r --enable-libass --enable-libopencore-amrnb --enable-libopencore-amrwb --enable-libopenjpeg --enable-libspeex --enable-libsoxr --enable-libzmq --enable-libzimg --disable-libjack --disable-indev=jack --enable-videotoolbox --enable-audiotoolbox --enable-neon
  libavutil      59. 39.100 / 59. 39.100
  libavcodec     61. 19.101 / 61. 19.101
  libavformat    61.  7.100 / 61.  7.100
  libavdevice    61.  3.100 / 61.  3.100
  libavfilter    10.  4.100 / 10.  4.100
  libswscale      8.  3.100 /  8.  3.100
  libswresample   5.  3.100 /  5.  3.100
  libpostproc    58.  3.100 / 58.  3.100
Input #0, mov,mp4,m4a,3gp,3g2,mj2, from '/Users/VJONA/code/cli-utils/pod-automation/clips/markColeman2.mp4':
  Metadata:
    major_brand     : mp42
    minor_version   : 0
    compatible_brands: mp42mp41
    creation_time   : 2025-08-06T19:44:31.000000Z
  Duration: 00:25:21.00, start: 0.000000, bitrate: 6630 kb/s
  Stream #0:0[0x1](eng): Video: h264 (Main) (avc1 / 0x31637661), yuv420p(tv, bt709, progressive), 1920x1080, 6294 kb/s, 25 fps, 25 tbr, 25k tbn (default)
      Metadata:
        creation_time   : 2025-08-06T19:44:31.000000Z
        handler_name    : ?Mainconcept Video Media Handler
        vendor_id       : [0][0][0][0]
        encoder         : AVC Coding
  Stream #0:1[0x2](eng): Audio: aac (LC) (mp4a / 0x6134706D), 48000 Hz, stereo, fltp, 317 kb/s (default)
      Metadata:
        creation_time   : 2025-08-06T19:44:32.000000Z
        handler_name    : #Mainconcept MP4 Sound Media Handler
        vendor_id       : [0][0][0][0]
[out#0/mp4 @ 0x600000f780c0] Error opening output /Users/VJONA/code/cli-utils/pod-automation/clips/output/clip-$llama3-5-20250807142935.mp4: No such file or directory
Error opening output file /Users/VJONA/code/cli-utils/pod-automation/clips/output/clip-$llama3-5-20250807142935.mp4.
Error opening output files: No such file or directory

Error - Failed to cut video: ffmpeg version 7.1.1 Copyright (c) 2000-2025 the FFmpeg developers
  built with Apple clang version 17.0.0 (clang-1700.0.13.3)
  configuration: --prefix=/opt/homebrew/Cellar/ffmpeg/7.1.1_3 --enable-shared --enable-pthreads --enable-version3 --cc=clang --host-cflags= --host-ldflags='-Wl,-ld_classic' --enable-ffplay --enable-gnutls --enable-gpl --enable-libaom --enable-libaribb24 --enable-libbluray --enable-libdav1d --enable-libharfbuzz --enable-libjxl --enable-libmp3lame --enable-libopus --enable-librav1e --enable-librist --enable-librubberband --enable-libsnappy --enable-libsrt --enable-libssh --enable-libsvtav1 --enable-libtesseract --enable-libtheora --enable-libvidstab --enable-libvmaf --enable-libvorbis --enable-libvpx --enable-libwebp --enable-libx264 --enable-libx265 --enable-libxml2 --enable-libxvid --enable-lzma --enable-libfontconfig --enable-libfreetype --enable-frei0r --enable-libass --enable-libopencore-amrnb --enable-libopencore-amrwb --enable-libopenjpeg --enable-libspeex --enable-libsoxr --enable-libzmq --enable-libzimg --disable-libjack --disable-indev=jack --enable-videotoolbox --enable-audiotoolbox --enable-neon
  libavutil      59. 39.100 / 59. 39.100
  libavcodec     61. 19.101 / 61. 19.101
  libavformat    61.  7.100 / 61.  7.100
  libavdevice    61.  3.100 / 61.  3.100
  libavfilter    10.  4.100 / 10.  4.100
  libswscale      8.  3.100 /  8.  3.100
  libswresample   5.  3.100 /  5.  3.100
  libpostproc    58.  3.100 / 58.  3.100
Input #0, mov,mp4,m4a,3gp,3g2,mj2, from '/Users/VJONA/code/cli-utils/pod-automation/clips/markColeman2.mp4':
  Metadata:
    major_brand     : mp42
    minor_version   : 0
    compatible_brands: mp42mp41
    creation_time   : 2025-08-06T19:44:31.000000Z
  Duration: 00:25:21.00, start: 0.000000, bitrate: 6630 kb/s
  Stream #0:0[0x1](eng): Video: h264 (Main) (avc1 / 0x31637661), yuv420p(tv, bt709, progressive), 1920x1080, 6294 kb/s, 25 fps, 25 tbr, 25k tbn (default)
      Metadata:
        creation_time   : 2025-08-06T19:44:31.000000Z
        handler_name    : ?Mainconcept Video Media Handler
        vendor_id       : [0][0][0][0]
        encoder         : AVC Coding
  Stream #0:1[0x2](eng): Audio: aac (LC) (mp4a / 0x6134706D), 48000 Hz, stereo, fltp, 317 kb/s (default)
      Metadata:
        creation_time   : 2025-08-06T19:44:32.000000Z
        handler_name    : #Mainconcept MP4 Sound Media Handler
        vendor_id       : [0][0][0][0]
[out#0/mp4 @ 0x6000006b0000] Error opening output /Users/VJONA/code/cli-utils/pod-automation/clips/output/clip-$llama3-6-20250807142935.mp4: No such file or directory
Error opening output file /Users/VJONA/code/cli-utils/pod-automation/clips/output/clip-$llama3-6-20250807142935.mp4.
Error opening output files: No such file or directory

Error - Failed to cut video: ffmpeg version 7.1.1 Copyright (c) 2000-2025 the FFmpeg developers
  built with Apple clang version 17.0.0 (clang-1700.0.13.3)
  configuration: --prefix=/opt/homebrew/Cellar/ffmpeg/7.1.1_3 --enable-shared --enable-pthreads --enable-version3 --cc=clang --host-cflags= --host-ldflags='-Wl,-ld_classic' --enable-ffplay --enable-gnutls --enable-gpl --enable-libaom --enable-libaribb24 --enable-libbluray --enable-libdav1d --enable-libharfbuzz --enable-libjxl --enable-libmp3lame --enable-libopus --enable-librav1e --enable-librist --enable-librubberband --enable-libsnappy --enable-libsrt --enable-libssh --enable-libsvtav1 --enable-libtesseract --enable-libtheora --enable-libvidstab --enable-libvmaf --enable-libvorbis --enable-libvpx --enable-libwebp --enable-libx264 --enable-libx265 --enable-libxml2 --enable-libxvid --enable-lzma --enable-libfontconfig --enable-libfreetype --enable-frei0r --enable-libass --enable-libopencore-amrnb --enable-libopencore-amrwb --enable-libopenjpeg --enable-libspeex --enable-libsoxr --enable-libzmq --enable-libzimg --disable-libjack --disable-indev=jack --enable-videotoolbox --enable-audiotoolbox --enable-neon
  libavutil      59. 39.100 / 59. 39.100
  libavcodec     61. 19.101 / 61. 19.101
  libavformat    61.  7.100 / 61.  7.100
  libavdevice    61.  3.100 / 61.  3.100
  libavfilter    10.  4.100 / 10.  4.100
  libswscale      8.  3.100 /  8.  3.100
  libswresample   5.  3.100 /  5.  3.100
  libpostproc    58.  3.100 / 58.  3.100
Input #0, mov,mp4,m4a,3gp,3g2,mj2, from '/Users/VJONA/code/cli-utils/pod-automation/clips/markColeman2.mp4':
  Metadata:
    major_brand     : mp42
    minor_version   : 0
    compatible_brands: mp42mp41
    creation_time   : 2025-08-06T19:44:31.000000Z
  Duration: 00:25:21.00, start: 0.000000, bitrate: 6630 kb/s
  Stream #0:0[0x1](eng): Video: h264 (Main) (avc1 / 0x31637661), yuv420p(tv, bt709, progressive), 1920x1080, 6294 kb/s, 25 fps, 25 tbr, 25k tbn (default)
      Metadata:
        creation_time   : 2025-08-06T19:44:31.000000Z
        handler_name    : ?Mainconcept Video Media Handler
        vendor_id       : [0][0][0][0]
        encoder         : AVC Coding
  Stream #0:1[0x2](eng): Audio: aac (LC) (mp4a / 0x6134706D), 48000 Hz, stereo, fltp, 317 kb/s (default)
      Metadata:
        creation_time   : 2025-08-06T19:44:32.000000Z
        handler_name    : #Mainconcept MP4 Sound Media Handler
        vendor_id       : [0][0][0][0]
[out#0/mp4 @ 0x60000119c0c0] Error opening output /Users/VJONA/code/cli-utils/pod-automation/clips/output/clip-$llama3-7-20250807142935.mp4: No such file or directory
Error opening output file /Users/VJONA/code/cli-utils/pod-automation/clips/output/clip-$llama3-7-20250807142935.mp4.
Error opening output files: No such file or directory

Error - Failed to cut video: ffmpeg version 7.1.1 Copyright (c) 2000-2025 the FFmpeg developers
  built with Apple clang version 17.0.0 (clang-1700.0.13.3)
  configuration: --prefix=/opt/homebrew/Cellar/ffmpeg/7.1.1_3 --enable-shared --enable-pthreads --enable-version3 --cc=clang --host-cflags= --host-ldflags='-Wl,-ld_classic' --enable-ffplay --enable-gnutls --enable-gpl --enable-libaom --enable-libaribb24 --enable-libbluray --enable-libdav1d --enable-libharfbuzz --enable-libjxl --enable-libmp3lame --enable-libopus --enable-librav1e --enable-librist --enable-librubberband --enable-libsnappy --enable-libsrt --enable-libssh --enable-libsvtav1 --enable-libtesseract --enable-libtheora --enable-libvidstab --enable-libvmaf --enable-libvorbis --enable-libvpx --enable-libwebp --enable-libx264 --enable-libx265 --enable-libxml2 --enable-libxvid --enable-lzma --enable-libfontconfig --enable-libfreetype --enable-frei0r --enable-libass --enable-libopencore-amrnb --enable-libopencore-amrwb --enable-libopenjpeg --enable-libspeex --enable-libsoxr --enable-libzmq --enable-libzimg --disable-libjack --disable-indev=jack --enable-videotoolbox --enable-audiotoolbox --enable-neon
  libavutil      59. 39.100 / 59. 39.100
  libavcodec     61. 19.101 / 61. 19.101
  libavformat    61.  7.100 / 61.  7.100
  libavdevice    61.  3.100 / 61.  3.100
  libavfilter    10.  4.100 / 10.  4.100
  libswscale      8.  3.100 /  8.  3.100
  libswresample   5.  3.100 /  5.  3.100
  libpostproc    58.  3.100 / 58.  3.100
Input #0, mov,mp4,m4a,3gp,3g2,mj2, from '/Users/VJONA/code/cli-utils/pod-automation/clips/markColeman2.mp4':
  Metadata:
    major_brand     : mp42
    minor_version   : 0
    compatible_brands: mp42mp41
    creation_time   : 2025-08-06T19:44:31.000000Z
  Duration: 00:25:21.00, start: 0.000000, bitrate: 6630 kb/s
  Stream #0:0[0x1](eng): Video: h264 (Main) (avc1 / 0x31637661), yuv420p(tv, bt709, progressive), 1920x1080, 6294 kb/s, 25 fps, 25 tbr, 25k tbn (default)
      Metadata:
        creation_time   : 2025-08-06T19:44:31.000000Z
        handler_name    : ?Mainconcept Video Media Handler
        vendor_id       : [0][0][0][0]
        encoder         : AVC Coding
  Stream #0:1[0x2](eng): Audio: aac (LC) (mp4a / 0x6134706D), 48000 Hz, stereo, fltp, 317 kb/s (default)
      Metadata:
        creation_time   : 2025-08-06T19:44:32.000000Z
        handler_name    : #Mainconcept MP4 Sound Media Handler
        vendor_id       : [0][0][0][0]
[out#0/mp4 @ 0x600003c00000] Error opening output /Users/VJONA/code/cli-utils/pod-automation/clips/output/clip-$llama3-8-20250807142935.mp4: No such file or directory
Error opening output file /Users/VJONA/code/cli-utils/pod-automation/clips/output/clip-$llama3-8-20250807142935.mp4.
Error opening output files: No such file or directory
